<svg id="App_Icon_Kit_A" data-name="App Icon Kit A" xmlns="http://www.w3.org/2000/svg" xmlns:xlink="http://www.w3.org/1999/xlink" viewBox="0 0 826.56 767.65"><defs><style>.cls-1,.cls-2,.cls-3{fill-rule:evenodd;}.cls-1{fill:url(#linear-gradient);}.cls-2{fill:url(#linear-gradient-2);}.cls-3{fill:url(#linear-gradient-3);}</style><linearGradient id="linear-gradient" x1="-51.31" y1="1340.33" x2="690.11" y2="50.14" gradientUnits="userSpaceOnUse"><stop offset="0" stop-color="#45f3ee"/><stop offset="1" stop-color="#143673"/></linearGradient><linearGradient id="linear-gradient-2" x1="841.12" y1="947.16" x2="763.27" y2="532.22" xlink:href="#linear-gradient"/><linearGradient id="linear-gradient-3" x1="911.62" y1="675.81" x2="224.31" y2="685.73" xlink:href="#linear-gradient"/></defs><g id="App_Icon_and_Badge_-_Main" data-name="App Icon and Badge - Main"><path class="cls-1" d="M371.78,878.94c-46.84.15-93.19,0-138.28-.67-109.69-1.77-146.71-54.14-86.88-157.22Q323.54,416.21,500.5,111.35l89.11,153.52-283.45,485C268.48,821.27,307.59,856.7,371.78,878.94Z" transform="translate(-118.14 -111.35)"/><path class="cls-2" d="M789.82,610.05l39.57,68.52L944.7,878.3H834.78c-56,0-83.45-16-108.08-68.74l-18.72-40-27.89-59.68C718.72,634.28,750.74,604.49,789.82,610.05Z" transform="translate(-118.14 -111.35)"/><path class="cls-3" d="M743.77,530.47l20.5,35.32,25.55,44.26c-39.08-5.56-71.1,24.23-109.73,99.78Q646.15,767.91,612.21,826c-23.79,40.7-51.1,51.87-97.37,52.12-47.69.27-95.64.67-143.06.82-64.19-22.24-103.3-57.67-65.62-129H444.88c29.83,0,45.81-13,61-38.89q54-92.46,108.06-184.91C649.59,465,708.64,469.94,743.77,530.47Z" transform="translate(-118.14 -111.35)"/></g></svg>